# xmcd
#
# Track frame offsets:
#	150
#	9444
#	24130
#	35319
#	55534
#	66936
#	79956
#	100603
#	117192
#	145754
#	159305
#	180464
#	195201
#	219690
#
# Disc length: 3163 seconds
#
# Revision: 0
# Processed by: cddbd v1.5.2PL0 Copyright (c) Steve Scherf et al.
# Submitted via: EasyCDDAExtractor 16.1.0.1
#
DISCID=a30c590e
DTITLE=SIX KIX - Aj laf džes
DYEAR=1999
DGENRE=Blues&Jazz
TTITLE0=Dole u řeky
TTITLE1=Když hrají blues
TTITLE2=Panama
TTITLE3=Docela všední obyčejný den
TTITLE4=Malé blues
TTITLE5=Fidgety Feet
TTITLE6=Basin Street Blues
TTITLE7=In The Mood
TTITLE8=Saint Jame s Infirmary Blues
TTITLE9=High Society
TTITLE10=Cizinec na pobřeží
TTITLE11=Pinetops Boogie
TTITLE12=Blue Monk
TTITLE13=Svatí pochodují
EXTD=
EXTT0=
EXTT1=
EXTT2=
EXTT3=
EXTT4=
EXTT5=
EXTT6=
EXTT7=
EXTT8=
EXTT9=
EXTT10=
EXTT11=
EXTT12=
EXTT13=
PLAYORDER=
